<svg xmlns="http://www.w3.org/2000/svg" viewBox="0 0 155 45" width="155" height="45" role="img" aria-label="TeoTim">
  <g stroke="#FFFFFF">
    <line x1="12" y1="0.5" x2="0" y2="0.5"></line><line x1="0.5" y1="12" x2="0.5" y2="0"></line>
    <line y1="44.5" x2="12" y2="44.5"></line><line x1="0.5" y1="45" x2="0.5" y2="33"></line>
    <line y1="-0.5" x2="12" y2="-0.5" transform="matrix(1 0 0 -1 143 0)"></line>
    <line y1="-0.5" x2="12" y2="-0.5" transform="matrix(0 -1 -1 0 154 12)"></line>
    <line y1="-0.5" x2="12" y2="-0.5" transform="matrix(-1 0 0 1 155 45)"></line>
    <line y1="-0.5" x2="12" y2="-0.5" transform="matrix(0 -1 -1 0 154 45)"></line>
  </g>
  <path fill="#FFFFFF" d="M27.626 37V12.898H18.752V10.36H39.416V12.898H30.542V37H27.626ZM40.7382 37V15.58H55.1202V17.866H43.6002V34.714H55.2822V37H40.7382ZM42.5382 27.172V24.904H53.6262V27.172H42.5382ZM67.6338 37.27C65.6898 37.27 63.9918 36.886 62.5398 36.118C61.0998 35.35 59.9778 34.162 59.1738 32.554C58.3818 30.934 57.9858 28.852 57.9858 26.308C57.9858 23.752 58.3878 21.664 59.1918 20.044C59.9958 18.424 61.1178 17.23 62.5578 16.462C64.0098 15.694 65.7018 15.31 67.6338 15.31C69.5658 15.31 71.2578 15.694 72.7098 16.462C74.1618 17.23 75.2838 18.424 76.0758 20.044C76.8798 21.664 77.2818 23.752 77.2818 26.308C77.2818 28.852 76.8798 30.934 76.0758 32.554C75.2718 34.162 74.1438 35.35 72.6918 36.118C71.2398 36.886 69.5538 37.27 67.6338 37.27ZM67.6338 34.912C68.9778 34.912 70.1478 34.636 71.1438 34.084C72.1518 33.52 72.9318 32.614 73.4838 31.366C74.0358 30.118 74.3118 28.45 74.3118 26.362C74.3118 24.226 74.0358 22.522 73.4838 21.25C72.9318 19.978 72.1518 19.066 71.1438 18.514C70.1478 17.95 68.9778 17.668 67.6338 17.668C66.2898 17.668 65.1198 17.944 64.1238 18.496C63.1278 19.048 62.3538 19.954 61.8018 21.214C61.2498 22.462 60.9738 24.13 60.9738 26.218C60.9738 28.354 61.2438 30.058 61.7838 31.33C62.3358 32.602 63.1098 33.52 64.1058 34.084C65.1018 34.636 66.2778 34.912 67.6338 34.912Z"></path>
  <path fill="#FFC800" d="M88.1299 37V12.898H79.2559V10.36H99.9199V12.898H91.0459V37H88.1299ZM101.242 37V15.58H104.158V37H101.242ZM110.384 37V15.58H113.804L121.796 31.78H121.256L129.158 15.58H132.596V37H129.878V18.046H130.598L122.732 33.994H120.23L112.22 18.064H113.084V37H110.384Z"></path>
</svg>